<svg width="400" height="150" xmlns="http://www.w3.org/2000/svg">
 <title>logo-primary-text-transparent</title>

 <g>
  <title>Layer 1</title>
  <path fill="#083944" d="m78.3,2c3.733,0 6.417,1.4583 8.05,4.375c1.75,2.9167 2.158,6.3 1.225,10.15c-0.7,0.7 -1.283,0.6417 -1.75,-0.175c-0.233,-2.3333 -1.283,-4.3167 -3.15,-5.95c-1.75,-1.75 -4.492,-2.625 -8.225,-2.625c-5.25,0 -10.617,1.575 -16.1,4.725c-5.367,3.15 -10.733,8.4 -16.1,15.75c-5.25,7.35 -10.442,17.092 -15.575,29.225c-5.017,12.017 -9.858,26.95 -14.525,44.8c1.05,-1.517 2.217,-2.975 3.5,-4.375c1.4,-1.517 2.917,-2.858 4.55,-4.025c1.633,-1.283 3.325,-2.275 5.075,-2.975c1.75,-0.817 3.5,-1.225 5.25,-1.225c2.683,0 4.55,1.108 5.6,3.325c1.167,2.217 1.75,4.783 1.75,7.7c0,3.733 -0.933,7.642 -2.8,11.725c-1.867,3.967 -4.258,7.583 -7.175,10.85c-2.8,3.267 -5.892,5.95 -9.275,8.05c-3.383,2.1 -6.533,3.15 -9.45,3.15c-2.1,0 -3.85,-0.583 -5.25,-1.75c-1.283,-1.283 -1.925,-3.442 -1.925,-6.475c0,-2.567 0.408,-5.95 1.225,-10.15c0.817,-4.2 1.925,-8.808 3.325,-13.825c1.4,-5.133 3.092,-10.5 5.075,-16.1c1.983,-5.6 4.142,-11.142 6.475,-16.625c9.8,-23.1 19.6,-40.1333 29.4,-51.1c9.917,-10.9667 20.183,-16.45 30.8,-16.45zm-51.625,93.45c-1.75,0 -3.617,0.583 -5.6,1.75c-1.983,1.05 -3.85,2.683 -5.6,4.9c-1.75,2.217 -3.267,5.017 -4.55,8.4c-1.167,3.383 -1.925,7.292 -2.275,11.725c-0.233,2.567 0.058,4.375 0.875,5.425c0.933,1.05 2.275,1.575 4.025,1.575c2.217,0 4.433,-0.7 6.65,-2.1c2.217,-1.517 4.2,-3.442 5.95,-5.775c1.75,-2.333 3.15,-4.958 4.2,-7.875c1.167,-2.917 1.75,-5.833 1.75,-8.75c0,-3.383 -0.525,-5.775 -1.575,-7.175c-1.05,-1.4 -2.333,-2.1 -3.85,-2.1zm48.487,1.75c0,1.633 -0.641,3.15 -1.925,4.55c-1.283,1.4 -3.033,2.683 -5.25,3.85c-2.216,1.05 -4.783,2.042 -7.7,2.975c-2.8,0.933 -5.775,1.808 -8.925,2.625c-0.116,1.283 -0.233,2.567 -0.35,3.85c0,1.283 0,2.683 0,4.2c0,2.917 0.642,5.367 1.925,7.35c1.284,1.983 3.092,2.975 5.425,2.975c2.334,0 4.492,-0.583 6.475,-1.75c2.1,-1.167 3.967,-2.742 5.6,-4.725c0.467,-0.233 0.817,-0.175 1.05,0.175c0.234,0.35 0.234,0.758 0,1.225c-1.983,2.683 -4.491,5.017 -7.525,7c-2.916,1.867 -6.008,2.8 -9.275,2.8c-3.033,0 -5.541,-0.992 -7.525,-2.975c-1.866,-1.983 -2.8,-4.9 -2.8,-8.75c0,-3.5 0.642,-7.175 1.925,-11.025c1.284,-3.967 2.975,-7.583 5.075,-10.85c2.1,-3.267 4.492,-5.95 7.175,-8.05c2.8,-2.1 5.717,-3.15 8.75,-3.15c2.217,0 4.084,0.817 5.6,2.45c1.517,1.517 2.275,3.267 2.275,5.25zm-11.55,-3.15c-2.683,0 -5.075,1.167 -7.175,3.5c-2.1,2.333 -3.616,6.008 -4.55,11.025c5.6,-0.817 9.684,-1.983 12.25,-3.5c2.684,-1.633 4.025,-3.442 4.025,-5.425c0,-1.633 -0.408,-2.975 -1.225,-4.025c-0.816,-1.05 -1.925,-1.575 -3.325,-1.575zm58.81,29.225c0.233,-0.233 0.525,-0.233 0.875,0c0.35,0.233 0.467,0.583 0.35,1.05c-2.45,3.383 -4.9,5.892 -7.35,7.525c-2.333,1.633 -4.317,2.45 -5.95,2.45c-1.05,0 -1.925,-0.525 -2.625,-1.575c-0.583,-1.05 -0.992,-2.45 -1.225,-4.2c-0.117,-1.867 -0.058,-3.908 0.175,-6.125c0.35,-2.333 0.875,-4.725 1.575,-7.175c-3.15,4.9 -6.475,9.158 -9.975,12.775c-3.5,3.5 -6.883,5.6 -10.15,6.3c-2.1,0 -3.908,-0.992 -5.425,-2.975c-1.4,-2.1 -2.1,-5.308 -2.1,-9.625c0,-3.85 0.758,-7.642 2.275,-11.375c1.633,-3.85 3.792,-7.292 6.475,-10.325c2.683,-3.15 5.775,-5.658 9.275,-7.525c3.5,-1.867 7.175,-2.8 11.025,-2.8c2.1,0 3.908,0.233 5.425,0.7c1.517,0.467 2.917,1.167 4.2,2.1c0.7,-0.583 1.633,-1.108 2.8,-1.575c1.283,-0.583 2.45,-0.875 3.5,-0.875c0.583,0 0.758,0.292 0.525,0.875c-2.683,3.267 -5.017,6.883 -7,10.85c-1.867,3.967 -3.325,7.817 -4.375,11.55c-1.05,3.733 -1.75,7.058 -2.1,9.975c-0.233,2.8 0,4.725 0.7,5.775c0.583,0.817 1.633,0.875 3.15,0.175c1.517,-0.817 3.5,-2.8 5.95,-5.95zm-30.45,5.075c1.283,0 2.917,-0.875 4.9,-2.625c2.1,-1.867 4.258,-4.258 6.475,-7.175c2.217,-2.917 4.375,-6.183 6.475,-9.8c2.217,-3.733 4.142,-7.467 5.775,-11.2c-0.467,-1.517 -1.575,-2.742 -3.325,-3.675c-1.633,-0.933 -3.558,-1.4 -5.775,-1.4c-2.567,0 -5.017,0.7 -7.35,2.1c-2.217,1.283 -4.2,3.15 -5.95,5.6c-1.75,2.333 -3.15,5.133 -4.2,8.4c-1.05,3.267 -1.575,6.883 -1.575,10.85c0,2.567 0.408,4.725 1.225,6.475c0.933,1.633 2.042,2.45 3.325,2.45zm83.99,-5.25c0.35,-0.233 0.7,-0.233 1.05,0c0.35,0.233 0.467,0.583 0.35,1.05c-1.983,2.683 -4.2,5.075 -6.65,7.175c-2.333,1.983 -4.55,2.975 -6.65,2.975c-3.616,0 -5.425,-2.333 -5.425,-7c0,-3.967 0.7,-8.342 2.1,-13.125c1.4,-4.9 3.325,-9.8 5.775,-14.7c0.467,-0.817 0.7,-1.633 0.7,-2.45c0,-1.283 -0.583,-1.925 -1.75,-1.925c-4.316,0 -9.1,2.975 -14.35,8.925c-5.133,5.95 -9.916,15.283 -14.35,28c-0.233,0.7 -0.875,1.283 -1.925,1.75c-1.05,0.35 -2.041,0.525 -2.975,0.525c-1.283,0 -1.75,-0.525 -1.4,-1.575c1.984,-5.017 4.025,-10.675 6.125,-16.975c2.217,-6.3 4.142,-12.542 5.775,-18.725c0.467,-2.217 0.059,-3.325 -1.225,-3.325c-1.166,0 -2.333,0.583 -3.5,1.75c-1.166,1.167 -2.391,2.683 -3.675,4.55c-0.233,0.233 -0.525,0.175 -0.875,-0.175c-0.233,-0.35 -0.291,-0.7 -0.175,-1.05c1.284,-1.983 3.034,-4.025 5.25,-6.125c2.217,-2.1 4.609,-3.15 7.175,-3.15c2.917,0 3.909,1.983 2.975,5.95c-0.466,2.567 -1.108,5.308 -1.925,8.225c-0.816,2.8 -1.691,5.6 -2.625,8.4c1.634,-3.15 3.559,-6.125 5.775,-8.925c2.217,-2.8 4.492,-5.192 6.825,-7.175c2.45,-1.983 4.842,-3.558 7.175,-4.725c2.45,-1.167 4.725,-1.75 6.825,-1.75c1.4,0 2.45,0.35 3.15,1.05c0.817,0.7 1.225,1.517 1.225,2.45c0,1.517 -0.35,3.033 -1.05,4.55c-2.45,4.433 -4.55,9.1 -6.3,14c-1.633,4.783 -2.45,9.217 -2.45,13.3c0,2.917 0.934,4.375 2.8,4.375c2.45,0 5.192,-2.042 8.225,-6.125zm52.221,-33.6c2.334,0 4.259,0.408 5.775,1.225c1.634,0.7 2.45,1.517 2.45,2.45c0,1.283 -0.291,2.742 -0.875,4.375c-0.466,1.633 -0.991,2.975 -1.575,4.025c-0.233,0.233 -0.583,0.292 -1.05,0.175c-0.35,-0.233 -0.466,-0.525 -0.35,-0.875c0.35,-0.817 0.584,-1.75 0.7,-2.8c0.117,-1.05 0.059,-1.983 -0.175,-2.8c-0.583,-2.333 -2.216,-3.5 -4.9,-3.5c-1.983,0 -3.616,0.583 -4.9,1.75c-1.166,1.167 -1.75,2.917 -1.75,5.25c0,1.867 0.467,3.675 1.4,5.425c1.05,1.633 2.159,3.325 3.325,5.075c1.284,1.633 2.392,3.442 3.325,5.425c1.05,1.867 1.575,3.967 1.575,6.3c0,3.733 -1.341,6.883 -4.025,9.45c-2.566,2.567 -6.475,3.85 -11.725,3.85c-3.616,0 -6.591,-0.642 -8.925,-1.925c-2.333,-1.283 -3.5,-2.625 -3.5,-4.025c0,-1.05 0.642,-2.625 1.925,-4.725c1.284,-2.1 2.742,-3.792 4.375,-5.075c0.35,-0.233 0.642,-0.175 0.875,0.175c0.35,0.35 0.409,0.7 0.175,1.05c-0.933,0.933 -1.633,2.042 -2.1,3.325c-0.466,1.167 -0.583,2.217 -0.35,3.15c0.35,1.983 1.225,3.5 2.625,4.55c1.517,0.933 3.267,1.4 5.25,1.4c3.034,0 5.367,-0.817 7,-2.45c1.75,-1.633 2.625,-3.733 2.625,-6.3c0,-2.217 -0.525,-4.258 -1.575,-6.125c-1.05,-1.983 -2.216,-3.85 -3.5,-5.6c-1.166,-1.867 -2.275,-3.675 -3.325,-5.425c-0.933,-1.867 -1.4,-3.85 -1.4,-5.95c0,-3.033 1.109,-5.6 3.325,-7.7c2.334,-2.1 5.425,-3.15 9.275,-3.15zm39.809,14.175c-0.584,0 -0.875,-0.292 -0.875,-0.875c0.933,-2.333 0.933,-4.375 0,-6.125c-0.817,-1.75 -2.567,-2.625 -5.25,-2.625c-1.867,0 -3.617,0.7 -5.25,2.1c-1.634,1.283 -3.034,3.15 -4.2,5.6c-1.167,2.333 -2.1,5.133 -2.8,8.4c-0.7,3.15 -1.05,6.592 -1.05,10.325c0,5.717 1.983,8.575 5.95,8.575c4.55,0 9.1,-2.742 13.65,-8.225c0.466,-0.233 0.875,-0.175 1.225,0.175c0.35,0.233 0.408,0.642 0.175,1.225c-2.684,3.383 -5.659,6.3 -8.925,8.75c-3.267,2.333 -6.475,3.5 -9.625,3.5c-2.567,0 -4.725,-0.933 -6.475,-2.8c-1.634,-1.867 -2.45,-4.433 -2.45,-7.7c0,-4.083 0.641,-8.167 1.925,-12.25c1.4,-4.083 3.15,-7.758 5.25,-11.025c2.216,-3.267 4.725,-5.892 7.525,-7.875c2.8,-2.1 5.658,-3.15 8.575,-3.15c2.45,0 4.375,0.583 5.775,1.75c1.4,1.167 2.1,2.567 2.1,4.2c0,0.583 -0.175,1.283 -0.525,2.1c-0.35,0.817 -0.817,1.633 -1.4,2.45c-0.467,0.817 -1.05,1.575 -1.75,2.275c-0.584,0.583 -1.109,0.992 -1.575,1.225zm40.447,-6.475c0,1.633 -0.642,3.15 -1.925,4.55c-1.284,1.4 -3.034,2.683 -5.25,3.85c-2.217,1.05 -4.784,2.042 -7.7,2.975c-2.8,0.933 -5.775,1.808 -8.925,2.625c-0.117,1.283 -0.234,2.567 -0.35,3.85c0,1.283 0,2.683 0,4.2c0,2.917 0.641,5.367 1.925,7.35c1.283,1.983 3.091,2.975 5.425,2.975c2.333,0 4.491,-0.583 6.475,-1.75c2.1,-1.167 3.966,-2.742 5.6,-4.725c0.466,-0.233 0.816,-0.175 1.05,0.175c0.233,0.35 0.233,0.758 0,1.225c-1.984,2.683 -4.492,5.017 -7.525,7c-2.917,1.867 -6.009,2.8 -9.275,2.8c-3.034,0 -5.542,-0.992 -7.525,-2.975c-1.867,-1.983 -2.8,-4.9 -2.8,-8.75c0,-3.5 0.641,-7.175 1.925,-11.025c1.283,-3.967 2.975,-7.583 5.075,-10.85c2.1,-3.267 4.491,-5.95 7.175,-8.05c2.8,-2.1 5.716,-3.15 8.75,-3.15c2.216,0 4.083,0.817 5.6,2.45c1.516,1.517 2.275,3.267 2.275,5.25zm-11.55,-3.15c-2.684,0 -5.075,1.167 -7.175,3.5c-2.1,2.333 -3.617,6.008 -4.55,11.025c5.6,-0.817 9.683,-1.983 12.25,-3.5c2.683,-1.633 4.025,-3.442 4.025,-5.425c0,-1.633 -0.409,-2.975 -1.225,-4.025c-0.817,-1.05 -1.925,-1.575 -3.325,-1.575zm60.909,29.05c0.35,-0.233 0.7,-0.233 1.05,0c0.35,0.233 0.467,0.583 0.35,1.05c-1.983,2.683 -4.2,5.075 -6.65,7.175c-2.333,1.983 -4.55,2.975 -6.65,2.975c-3.616,0 -5.425,-2.333 -5.425,-7c0,-3.967 0.7,-8.342 2.1,-13.125c1.4,-4.9 3.325,-9.8 5.775,-14.7c0.467,-0.817 0.7,-1.633 0.7,-2.45c0,-1.283 -0.583,-1.925 -1.75,-1.925c-4.316,0 -9.1,2.975 -14.35,8.925c-5.133,5.95 -9.916,15.283 -14.35,28c-0.233,0.7 -0.875,1.283 -1.925,1.75c-1.05,0.35 -2.041,0.525 -2.975,0.525c-1.283,0 -1.75,-0.525 -1.4,-1.575c1.984,-5.017 4.025,-10.675 6.125,-16.975c2.217,-6.3 4.142,-12.542 5.775,-18.725c0.467,-2.217 0.059,-3.325 -1.225,-3.325c-1.166,0 -2.333,0.583 -3.5,1.75c-1.166,1.167 -2.391,2.683 -3.675,4.55c-0.233,0.233 -0.525,0.175 -0.875,-0.175c-0.233,-0.35 -0.291,-0.7 -0.175,-1.05c1.284,-1.983 3.034,-4.025 5.25,-6.125c2.217,-2.1 4.609,-3.15 7.175,-3.15c2.917,0 3.909,1.983 2.975,5.95c-0.466,2.567 -1.108,5.308 -1.925,8.225c-0.816,2.8 -1.691,5.6 -2.625,8.4c1.634,-3.15 3.559,-6.125 5.775,-8.925c2.217,-2.8 4.492,-5.192 6.825,-7.175c2.45,-1.983 4.842,-3.558 7.175,-4.725c2.45,-1.167 4.725,-1.75 6.825,-1.75c1.4,0 2.45,0.35 3.15,1.05c0.817,0.7 1.225,1.517 1.225,2.45c0,1.517 -0.35,3.033 -1.05,4.55c-2.45,4.433 -4.55,9.1 -6.3,14c-1.633,4.783 -2.45,9.217 -2.45,13.3c0,2.917 0.934,4.375 2.8,4.375c2.45,0 5.192,-2.042 8.225,-6.125zm37.628,-25.9c0,1.633 -0.642,3.15 -1.925,4.55c-1.283,1.4 -3.033,2.683 -5.25,3.85c-2.217,1.05 -4.783,2.042 -7.7,2.975c-2.8,0.933 -5.775,1.808 -8.925,2.625c-0.117,1.283 -0.233,2.567 -0.35,3.85c0,1.283 0,2.683 0,4.2c0,2.917 0.642,5.367 1.925,7.35c1.283,1.983 3.092,2.975 5.425,2.975c2.333,0 4.492,-0.583 6.475,-1.75c2.1,-1.167 3.967,-2.742 5.6,-4.725c0.467,-0.233 0.817,-0.175 1.05,0.175c0.233,0.35 0.233,0.758 0,1.225c-1.983,2.683 -4.492,5.017 -7.525,7c-2.917,1.867 -6.008,2.8 -9.275,2.8c-3.033,0 -5.542,-0.992 -7.525,-2.975c-1.867,-1.983 -2.8,-4.9 -2.8,-8.75c0,-3.5 0.642,-7.175 1.925,-11.025c1.283,-3.967 2.975,-7.583 5.075,-10.85c2.1,-3.267 4.492,-5.95 7.175,-8.05c2.8,-2.1 5.717,-3.15 8.75,-3.15c2.217,0 4.083,0.817 5.6,2.45c1.517,1.517 2.275,3.267 2.275,5.25zm-11.55,-3.15c-2.683,0 -5.075,1.167 -7.175,3.5c-2.1,2.333 -3.617,6.008 -4.55,11.025c5.6,-0.817 9.683,-1.983 12.25,-3.5c2.683,-1.633 4.025,-3.442 4.025,-5.425c0,-1.633 -0.408,-2.975 -1.225,-4.025c-0.817,-1.05 -1.925,-1.575 -3.325,-1.575z"/>
 </g>
</svg>